<svg width="63" height="26" viewBox="0 0 63 26" fill="none" xmlns="http://www.w3.org/2000/svg">
<rect width="63" height="26" fill="white"/>
<path d="M11.4102 9.43359C12.5156 9.43359 13.3223 9.65039 13.8301 10.084C14.3418 10.5137 14.5977 11.1309 14.5977 11.9355C14.5977 12.2988 14.5371 12.6445 14.416 12.9727C14.2988 13.2969 14.1074 13.584 13.8418 13.834C13.5762 14.0801 13.2266 14.2754 12.793 14.4199C12.3633 14.5605 11.8359 14.6309 11.2109 14.6309H10.168V18H9.17188V9.43359H11.4102ZM11.3164 10.2832H10.168V13.7754H11.0996C11.6465 13.7754 12.1016 13.7168 12.4648 13.5996C12.832 13.4824 13.1074 13.293 13.291 13.0312C13.4746 12.7656 13.5664 12.4141 13.5664 11.9766C13.5664 11.4062 13.3848 10.9824 13.0215 10.7051C12.6582 10.4238 12.0898 10.2832 11.3164 10.2832ZM19.1621 11.4609C19.291 11.4609 19.4258 11.4688 19.5664 11.4844C19.707 11.4961 19.832 11.5137 19.9414 11.5371L19.8184 12.4395C19.7129 12.4121 19.5957 12.3906 19.4668 12.375C19.3379 12.3594 19.2168 12.3516 19.1035 12.3516C18.8457 12.3516 18.6016 12.4043 18.3711 12.5098C18.1445 12.6113 17.9453 12.7598 17.7734 12.9551C17.6016 13.1465 17.4668 13.3789 17.3691 13.6523C17.2715 13.9219 17.2227 14.2227 17.2227 14.5547V18H16.2441V11.5781H17.0527L17.1582 12.7617H17.1992C17.332 12.5234 17.4922 12.3066 17.6797 12.1113C17.8672 11.9121 18.084 11.7539 18.3301 11.6367C18.5801 11.5195 18.8574 11.4609 19.1621 11.4609ZM23.627 11.4609C24.1738 11.4609 24.6426 11.582 25.0332 11.8242C25.4238 12.0664 25.7227 12.4062 25.9297 12.8438C26.1367 13.2773 26.2402 13.7852 26.2402 14.3672V14.9707H21.8047C21.8164 15.7246 22.0039 16.2988 22.3672 16.6934C22.7305 17.0879 23.2422 17.2852 23.9023 17.2852C24.3086 17.2852 24.668 17.248 24.9805 17.1738C25.293 17.0996 25.6172 16.9902 25.9531 16.8457V17.7012C25.6289 17.8457 25.3066 17.9512 24.9863 18.0176C24.6699 18.084 24.2949 18.1172 23.8613 18.1172C23.2441 18.1172 22.7051 17.9922 22.2441 17.7422C21.7871 17.4883 21.4316 17.1172 21.1777 16.6289C20.9238 16.1406 20.7969 15.543 20.7969 14.8359C20.7969 14.1445 20.9121 13.5469 21.1426 13.043C21.377 12.5352 21.7051 12.1445 22.127 11.8711C22.5527 11.5977 23.0527 11.4609 23.627 11.4609ZM23.6152 12.2578C23.0957 12.2578 22.6816 12.4277 22.373 12.7676C22.0645 13.1074 21.8809 13.582 21.8223 14.1914H25.2207C25.2168 13.8086 25.1562 13.4727 25.0391 13.1836C24.9258 12.8906 24.752 12.6641 24.5176 12.5039C24.2832 12.3398 23.9824 12.2578 23.6152 12.2578ZM32.0469 16.2422C32.0469 16.6523 31.9434 16.998 31.7363 17.2793C31.5332 17.5566 31.2402 17.7656 30.8574 17.9062C30.4785 18.0469 30.0254 18.1172 29.498 18.1172C29.0488 18.1172 28.6602 18.082 28.332 18.0117C28.0039 17.9414 27.7168 17.8418 27.4707 17.7129V16.8164C27.7324 16.9453 28.0449 17.0625 28.4082 17.168C28.7715 17.2734 29.1426 17.3262 29.5215 17.3262C30.0762 17.3262 30.4785 17.2363 30.7285 17.0566C30.9785 16.877 31.1035 16.6328 31.1035 16.3242C31.1035 16.1484 31.0527 15.9941 30.9512 15.8613C30.8535 15.7246 30.6875 15.5938 30.4531 15.4688C30.2188 15.3398 29.8945 15.1992 29.4805 15.0469C29.0703 14.8906 28.7148 14.7363 28.4141 14.584C28.1172 14.4277 27.8867 14.2383 27.7227 14.0156C27.5625 13.793 27.4824 13.5039 27.4824 13.1484C27.4824 12.6055 27.7012 12.1895 28.1387 11.9004C28.5801 11.6074 29.1582 11.4609 29.873 11.4609C30.2598 11.4609 30.6211 11.5 30.957 11.5781C31.2969 11.6523 31.6133 11.7539 31.9062 11.8828L31.5781 12.6621C31.3125 12.5488 31.0293 12.4531 30.7285 12.375C30.4277 12.2969 30.1211 12.2578 29.8086 12.2578C29.3594 12.2578 29.0137 12.332 28.7715 12.4805C28.5332 12.6289 28.4141 12.832 28.4141 13.0898C28.4141 13.2891 28.4688 13.4531 28.5781 13.582C28.6914 13.7109 28.8711 13.832 29.1172 13.9453C29.3633 14.0586 29.6875 14.1914 30.0898 14.3438C30.4922 14.4922 30.8398 14.6465 31.1328 14.8066C31.4258 14.9629 31.6504 15.1543 31.8066 15.3809C31.9668 15.6035 32.0469 15.8906 32.0469 16.2422ZM35.6855 17.3203C35.8457 17.3203 36.0098 17.3066 36.1777 17.2793C36.3457 17.252 36.4824 17.2188 36.5879 17.1797V17.9355C36.4746 17.9863 36.3164 18.0293 36.1133 18.0645C35.9141 18.0996 35.7188 18.1172 35.5273 18.1172C35.1875 18.1172 34.8789 18.0586 34.6016 17.9414C34.3242 17.8203 34.1016 17.6172 33.9336 17.332C33.7695 17.0469 33.6875 16.6523 33.6875 16.1484V12.3398H32.7734V11.8652L33.6934 11.4844L34.0801 10.0898H34.666V11.5781H36.5469V12.3398H34.666V16.1191C34.666 16.5215 34.7578 16.8223 34.9414 17.0215C35.1289 17.2207 35.377 17.3203 35.6855 17.3203ZM43.4258 14.7773C43.4258 15.3047 43.3574 15.7754 43.2207 16.1895C43.084 16.6035 42.8867 16.9531 42.6289 17.2383C42.3711 17.5234 42.0586 17.7422 41.6914 17.8945C41.3281 18.043 40.916 18.1172 40.4551 18.1172C40.0254 18.1172 39.6309 18.043 39.2715 17.8945C38.916 17.7422 38.6074 17.5234 38.3457 17.2383C38.0879 16.9531 37.8867 16.6035 37.7422 16.1895C37.6016 15.7754 37.5312 15.3047 37.5312 14.7773C37.5312 14.0742 37.6504 13.4766 37.8887 12.9844C38.127 12.4883 38.4668 12.1113 38.9082 11.8535C39.3535 11.5918 39.8828 11.4609 40.4961 11.4609C41.082 11.4609 41.5938 11.5918 42.0312 11.8535C42.4727 12.1152 42.8145 12.4941 43.0566 12.9902C43.3027 13.4824 43.4258 14.0781 43.4258 14.7773ZM38.5391 14.7773C38.5391 15.293 38.6074 15.7402 38.7441 16.1191C38.8809 16.498 39.0918 16.791 39.377 16.998C39.6621 17.2051 40.0293 17.3086 40.4785 17.3086C40.9238 17.3086 41.2891 17.2051 41.5742 16.998C41.8633 16.791 42.0762 16.498 42.2129 16.1191C42.3496 15.7402 42.418 15.293 42.418 14.7773C42.418 14.2656 42.3496 13.8242 42.2129 13.4531C42.0762 13.0781 41.8652 12.7891 41.5801 12.5859C41.2949 12.3828 40.9258 12.2812 40.4727 12.2812C39.8047 12.2812 39.3145 12.502 39.002 12.9434C38.6934 13.3848 38.5391 13.9961 38.5391 14.7773Z" fill="#242424"/>
<path d="M54.2044 9.28572C54.0947 9.40172 54.023 9.62649 54.0446 9.78492L54.1437 10.5006C54.1656 10.6591 54.0658 10.7324 53.922 10.6638L53.2719 10.3531C53.128 10.2842 52.8932 10.2852 52.7497 10.3551L52.1024 10.6709C51.9589 10.7408 51.8587 10.668 51.8794 10.5096L51.973 9.79304C51.9937 9.63449 51.9202 9.41038 51.8097 9.29516L51.3104 8.77429C51.1997 8.65908 51.2376 8.54075 51.3943 8.51152L52.102 8.37953C52.2587 8.35031 52.4482 8.21087 52.5234 8.06965L52.8624 7.43223C52.9374 7.29101 53.0612 7.29068 53.1372 7.43123L53.4811 8.06598C53.5573 8.20654 53.7477 8.34453 53.9048 8.37242L54.6135 8.49919C54.7704 8.52719 54.8091 8.64519 54.6995 8.76129L54.2044 9.28572Z" fill="#FFAC33"/>
<path d="M52.087 7.56834C52.2007 7.72533 52.3588 8.11465 52.2778 8.17354C52.1969 8.23254 51.877 7.96132 51.7633 7.80433C51.6498 7.64733 51.6594 7.50789 51.7488 7.44279C51.8381 7.37757 51.9732 7.41145 52.087 7.56834ZM54.2367 7.80433C54.1231 7.96132 53.8033 8.23265 53.7222 8.17343C53.6412 8.11454 53.7994 7.72533 53.9131 7.56845C54.0268 7.41134 54.1618 7.37745 54.2512 7.44279C54.3405 7.50789 54.3501 7.64733 54.2367 7.80433ZM52.8472 11.0249C52.8471 10.8309 52.947 10.4226 53.0473 10.4226C53.147 10.4226 53.2471 10.8309 53.247 11.0248C53.247 11.2189 53.1576 11.3261 53.047 11.3259C52.9365 11.3261 52.8472 11.219 52.8472 11.0249ZM54.6448 9.99581C54.4609 9.93592 54.105 9.71437 54.136 9.6186C54.1668 9.52327 54.5846 9.55405 54.7682 9.61404C54.9521 9.67404 55.0261 9.79237 54.9919 9.89803C54.9577 10.0036 54.8287 10.0558 54.6448 9.99581ZM51.2315 9.61415C51.4153 9.55416 51.833 9.52338 51.8641 9.61904C51.8948 9.71426 51.5388 9.93614 51.3551 9.99592C51.1714 10.0559 51.042 10.0037 51.0081 9.89814C50.9739 9.79259 51.0475 9.67426 51.2315 9.61415Z" fill="#FFD983"/>
<path d="M46.9387 16.4583H51.37C52.058 16.4583 52.6482 16.8765 52.9007 17.4722C53.0021 17.3606 53.147 17.2891 53.3087 17.2891C53.6133 17.2891 53.8626 17.5384 53.8626 17.8431V18.6739H45.2769V18.12C45.2769 17.2025 46.0211 16.4583 46.9387 16.4583Z" fill="#4289C1"/>
<path d="M50.2622 16.1813H48.0465C48.0465 16.1813 47.7696 18.6739 49.1544 18.6739C50.5391 18.6739 50.2622 16.1813 50.2622 16.1813Z" fill="#2A6797"/>
<path d="M49.1543 14.9497C46.8599 14.9497 45 14.5121 45 13.9723C45 13.4325 46.8599 12.9949 49.1543 12.9949C51.4487 12.9949 53.3087 13.4325 53.3087 13.9723C53.3087 14.5121 51.4487 14.9497 49.1543 14.9497Z" fill="#292F33"/>
<path d="M46.8448 13.5677C47.0689 12.5706 48.0177 11.172 49.1544 11.172C50.291 11.172 51.2399 12.5706 51.4639 13.5677C51.6954 13.581 51.8777 13.7117 51.8777 14.0909C51.8777 14.4919 51.6744 14.817 51.4238 14.817C51.4196 14.817 51.416 14.8154 51.4118 14.8151C51.1172 16.0271 50.2182 17.0343 49.1541 17.0343C48.09 17.0343 47.191 16.0271 46.8963 14.8151C46.8922 14.8154 46.8886 14.817 46.8844 14.817C46.6338 14.817 46.4305 14.4919 46.4305 14.0909C46.4311 13.7117 46.613 13.5813 46.8448 13.5677Z" fill="#F7DECE"/>
<path d="M50.2622 14.439C50.4145 14.439 50.5391 14.3144 50.5391 14.162V13.8851C50.5391 13.7327 50.4145 13.6081 50.2622 13.6081C50.1098 13.6081 49.9852 13.7327 49.9852 13.8851V14.162C49.9852 14.3144 50.1098 14.439 50.2622 14.439ZM48.0465 14.439C48.1988 14.439 48.3235 14.3144 48.3235 14.162V13.8851C48.3235 13.7327 48.1988 13.6081 48.0465 13.6081C47.8942 13.6081 47.7696 13.7327 47.7696 13.8851V14.162C47.7696 14.3144 47.8942 14.439 48.0465 14.439Z" fill="#662113"/>
<path d="M48.9467 14.7478H49.3621C49.4765 14.7478 49.5698 14.6545 49.5698 14.5401C49.5698 14.4257 49.4765 14.3324 49.3621 14.3324H48.9467C48.8323 14.3324 48.7389 14.4257 48.7389 14.5401C48.7389 14.6545 48.8323 14.7478 48.9467 14.7478ZM48.5542 15.6365H49.7543C49.8684 15.6365 49.962 15.5432 49.962 15.4288V15.3372C49.962 15.2231 49.8686 15.1294 49.7543 15.1294H48.5542C48.4398 15.1294 48.3465 15.2228 48.3465 15.3372V15.4288C48.3465 15.5429 48.4401 15.6365 48.5542 15.6365Z" fill="#C1694F"/>
<path d="M46.8212 13.6461C46.7678 13.6206 46.7249 13.584 46.6969 13.5356C46.5822 13.337 46.7575 13.0207 47.0888 12.8296C47.42 12.6385 47.7815 12.6446 47.8961 12.8432C48.0108 13.0417 47.8355 13.358 47.5042 13.5491C47.3605 13.6319 47.2123 13.6757 47.0799 13.6846C47.1608 13.8297 47.2156 14.0925 47.2156 14.3961C47.2156 14.6905 47.1644 14.9475 47.0874 15.0951C47.2007 15.0907 47.3513 15.2048 47.445 15.3067C47.6413 15.102 47.9548 14.8777 48.3091 14.8076C48.8774 14.6952 49.1125 14.9145 49.1643 15.066C49.2147 14.9145 49.4493 14.6927 50.0201 14.8057C50.3688 14.8746 50.6776 15.0932 50.8745 15.2951C50.9684 15.1962 51.1127 15.0909 51.2215 15.0951C51.1443 14.9475 51.093 14.6902 51.093 14.3961C51.093 14.0911 51.1484 13.8272 51.2301 13.6829C51.0734 13.7006 50.8773 13.658 50.6892 13.5494C50.358 13.3583 50.1827 13.042 50.2973 12.8434C50.412 12.6449 50.7734 12.6388 51.1047 12.8299C51.4359 13.021 51.6112 13.3373 51.4966 13.5358C51.4827 13.5599 51.4647 13.581 51.4442 13.5993C51.5608 13.6967 51.6469 14.0147 51.6469 14.3961C51.6469 14.855 51.5229 15.2269 51.37 15.2269C51.3644 15.2269 51.3592 15.2231 51.3536 15.2219C51.3639 15.2596 51.37 15.3056 51.37 15.3635C51.37 15.8684 51.1853 15.8684 51.1853 15.8684C51.37 16.3733 51.0005 16.882 51.0005 16.882C51.0005 17.6395 50.4466 17.6395 50.4466 17.6395C50.4469 18.397 49.7082 18.1447 49.7082 18.1447C49.5235 18.397 49.1543 18.397 49.1543 18.397C49.1543 18.397 48.7851 18.397 48.6004 18.1447C48.6004 18.1447 47.8618 18.397 47.8618 17.6398C47.8618 17.6398 47.3079 17.6398 47.3079 16.8823C47.3079 16.8823 46.9387 16.3735 47.1231 15.8686C47.1231 15.8686 46.9384 15.8686 46.9384 15.3637C46.9384 15.3056 46.9445 15.2596 46.9547 15.2219C46.9492 15.2231 46.9439 15.2269 46.9384 15.2269C46.7855 15.2269 46.6614 14.855 46.6614 14.3961C46.6617 14.0637 46.7271 13.779 46.8212 13.6461ZM48.4157 15.8684C48.938 15.5116 49.1543 15.6161 49.1543 15.6161C49.1543 15.6161 49.3706 15.5116 49.893 15.8684C50.1735 16.06 50.4535 15.8152 50.6532 15.5756C50.4461 15.4995 50.1868 15.4034 49.9124 15.3491C49.4053 15.3574 49.2106 15.2868 49.1643 15.1832C49.118 15.284 48.922 15.3488 48.4165 15.351C48.136 15.4064 47.8709 15.5061 47.6615 15.5828C47.8607 15.8199 48.1382 16.0584 48.4157 15.8684Z" fill="#E6E7E8"/>
<path d="M47.0038 12.9013C47.3439 12.1571 48.9347 8.70349 49.1543 8.70349C49.374 8.70349 50.9648 12.1571 51.3049 12.9013C52.6398 13.1351 53.3087 13.5765 53.3087 13.9657C51.6469 13.4118 50.2622 13.2891 49.1543 13.2891C48.0465 13.2891 46.6617 13.4118 45 13.9657C45 13.5765 45.6688 13.1351 47.0038 12.9013Z" fill="#4289C1"/>
<path d="M52.7548 18.6739H53.3087V11.9888L53.5857 10.9191H52.4778L52.7548 11.9888V18.6739Z" fill="#D99E82"/>
<path d="M52.2009 17.1507C52.2009 17.686 52.5728 18.12 53.0317 18.12C53.4907 18.12 53.8626 17.686 53.8626 17.1507C53.8626 16.6153 53.4907 16.4583 53.0317 16.4583C52.5728 16.4583 52.2009 16.6153 52.2009 17.1507Z" fill="#F7DECE"/>
<path d="M11.4102 9.43359C12.5156 9.43359 13.3223 9.65039 13.8301 10.084C14.3418 10.5137 14.5977 11.1309 14.5977 11.9355C14.5977 12.2988 14.5371 12.6445 14.416 12.9727C14.2988 13.2969 14.1074 13.584 13.8418 13.834C13.5762 14.0801 13.2266 14.2754 12.793 14.4199C12.3633 14.5605 11.8359 14.6309 11.2109 14.6309H10.168V18H9.17188V9.43359H11.4102ZM11.3164 10.2832H10.168V13.7754H11.0996C11.6465 13.7754 12.1016 13.7168 12.4648 13.5996C12.832 13.4824 13.1074 13.293 13.291 13.0312C13.4746 12.7656 13.5664 12.4141 13.5664 11.9766C13.5664 11.4062 13.3848 10.9824 13.0215 10.7051C12.6582 10.4238 12.0898 10.2832 11.3164 10.2832ZM19.1621 11.4609C19.291 11.4609 19.4258 11.4688 19.5664 11.4844C19.707 11.4961 19.832 11.5137 19.9414 11.5371L19.8184 12.4395C19.7129 12.4121 19.5957 12.3906 19.4668 12.375C19.3379 12.3594 19.2168 12.3516 19.1035 12.3516C18.8457 12.3516 18.6016 12.4043 18.3711 12.5098C18.1445 12.6113 17.9453 12.7598 17.7734 12.9551C17.6016 13.1465 17.4668 13.3789 17.3691 13.6523C17.2715 13.9219 17.2227 14.2227 17.2227 14.5547V18H16.2441V11.5781H17.0527L17.1582 12.7617H17.1992C17.332 12.5234 17.4922 12.3066 17.6797 12.1113C17.8672 11.9121 18.084 11.7539 18.3301 11.6367C18.5801 11.5195 18.8574 11.4609 19.1621 11.4609ZM23.627 11.4609C24.1738 11.4609 24.6426 11.582 25.0332 11.8242C25.4238 12.0664 25.7227 12.4062 25.9297 12.8438C26.1367 13.2773 26.2402 13.7852 26.2402 14.3672V14.9707H21.8047C21.8164 15.7246 22.0039 16.2988 22.3672 16.6934C22.7305 17.0879 23.2422 17.2852 23.9023 17.2852C24.3086 17.2852 24.668 17.248 24.9805 17.1738C25.293 17.0996 25.6172 16.9902 25.9531 16.8457V17.7012C25.6289 17.8457 25.3066 17.9512 24.9863 18.0176C24.6699 18.084 24.2949 18.1172 23.8613 18.1172C23.2441 18.1172 22.7051 17.9922 22.2441 17.7422C21.7871 17.4883 21.4316 17.1172 21.1777 16.6289C20.9238 16.1406 20.7969 15.543 20.7969 14.8359C20.7969 14.1445 20.9121 13.5469 21.1426 13.043C21.377 12.5352 21.7051 12.1445 22.127 11.8711C22.5527 11.5977 23.0527 11.4609 23.627 11.4609ZM23.6152 12.2578C23.0957 12.2578 22.6816 12.4277 22.373 12.7676C22.0645 13.1074 21.8809 13.582 21.8223 14.1914H25.2207C25.2168 13.8086 25.1562 13.4727 25.0391 13.1836C24.9258 12.8906 24.752 12.6641 24.5176 12.5039C24.2832 12.3398 23.9824 12.2578 23.6152 12.2578ZM32.0469 16.2422C32.0469 16.6523 31.9434 16.998 31.7363 17.2793C31.5332 17.5566 31.2402 17.7656 30.8574 17.9062C30.4785 18.0469 30.0254 18.1172 29.498 18.1172C29.0488 18.1172 28.6602 18.082 28.332 18.0117C28.0039 17.9414 27.7168 17.8418 27.4707 17.7129V16.8164C27.7324 16.9453 28.0449 17.0625 28.4082 17.168C28.7715 17.2734 29.1426 17.3262 29.5215 17.3262C30.0762 17.3262 30.4785 17.2363 30.7285 17.0566C30.9785 16.877 31.1035 16.6328 31.1035 16.3242C31.1035 16.1484 31.0527 15.9941 30.9512 15.8613C30.8535 15.7246 30.6875 15.5938 30.4531 15.4688C30.2188 15.3398 29.8945 15.1992 29.4805 15.0469C29.0703 14.8906 28.7148 14.7363 28.4141 14.584C28.1172 14.4277 27.8867 14.2383 27.7227 14.0156C27.5625 13.793 27.4824 13.5039 27.4824 13.1484C27.4824 12.6055 27.7012 12.1895 28.1387 11.9004C28.5801 11.6074 29.1582 11.4609 29.873 11.4609C30.2598 11.4609 30.6211 11.5 30.957 11.5781C31.2969 11.6523 31.6133 11.7539 31.9062 11.8828L31.5781 12.6621C31.3125 12.5488 31.0293 12.4531 30.7285 12.375C30.4277 12.2969 30.1211 12.2578 29.8086 12.2578C29.3594 12.2578 29.0137 12.332 28.7715 12.4805C28.5332 12.6289 28.4141 12.832 28.4141 13.0898C28.4141 13.2891 28.4688 13.4531 28.5781 13.582C28.6914 13.7109 28.8711 13.832 29.1172 13.9453C29.3633 14.0586 29.6875 14.1914 30.0898 14.3438C30.4922 14.4922 30.8398 14.6465 31.1328 14.8066C31.4258 14.9629 31.6504 15.1543 31.8066 15.3809C31.9668 15.6035 32.0469 15.8906 32.0469 16.2422ZM35.6855 17.3203C35.8457 17.3203 36.0098 17.3066 36.1777 17.2793C36.3457 17.252 36.4824 17.2188 36.5879 17.1797V17.9355C36.4746 17.9863 36.3164 18.0293 36.1133 18.0645C35.9141 18.0996 35.7188 18.1172 35.5273 18.1172C35.1875 18.1172 34.8789 18.0586 34.6016 17.9414C34.3242 17.8203 34.1016 17.6172 33.9336 17.332C33.7695 17.0469 33.6875 16.6523 33.6875 16.1484V12.3398H32.7734V11.8652L33.6934 11.4844L34.0801 10.0898H34.666V11.5781H36.5469V12.3398H34.666V16.1191C34.666 16.5215 34.7578 16.8223 34.9414 17.0215C35.1289 17.2207 35.377 17.3203 35.6855 17.3203ZM43.4258 14.7773C43.4258 15.3047 43.3574 15.7754 43.2207 16.1895C43.084 16.6035 42.8867 16.9531 42.6289 17.2383C42.3711 17.5234 42.0586 17.7422 41.6914 17.8945C41.3281 18.043 40.916 18.1172 40.4551 18.1172C40.0254 18.1172 39.6309 18.043 39.2715 17.8945C38.916 17.7422 38.6074 17.5234 38.3457 17.2383C38.0879 16.9531 37.8867 16.6035 37.7422 16.1895C37.6016 15.7754 37.5312 15.3047 37.5312 14.7773C37.5312 14.0742 37.6504 13.4766 37.8887 12.9844C38.127 12.4883 38.4668 12.1113 38.9082 11.8535C39.3535 11.5918 39.8828 11.4609 40.4961 11.4609C41.082 11.4609 41.5938 11.5918 42.0312 11.8535C42.4727 12.1152 42.8145 12.4941 43.0566 12.9902C43.3027 13.4824 43.4258 14.0781 43.4258 14.7773ZM38.5391 14.7773C38.5391 15.293 38.6074 15.7402 38.7441 16.1191C38.8809 16.498 39.0918 16.791 39.377 16.998C39.6621 17.2051 40.0293 17.3086 40.4785 17.3086C40.9238 17.3086 41.2891 17.2051 41.5742 16.998C41.8633 16.791 42.0762 16.498 42.2129 16.1191C42.3496 15.7402 42.418 15.293 42.418 14.7773C42.418 14.2656 42.3496 13.8242 42.2129 13.4531C42.0762 13.0781 41.8652 12.7891 41.5801 12.5859C41.2949 12.3828 40.9258 12.2812 40.4727 12.2812C39.8047 12.2812 39.3145 12.502 39.002 12.9434C38.6934 13.3848 38.5391 13.9961 38.5391 14.7773Z" fill="#242424"/>
<path d="M54.2044 9.28572C54.0947 9.40172 54.023 9.62649 54.0446 9.78492L54.1437 10.5006C54.1656 10.6591 54.0658 10.7324 53.922 10.6638L53.2719 10.3531C53.128 10.2842 52.8932 10.2852 52.7497 10.3551L52.1024 10.6709C51.9589 10.7408 51.8587 10.668 51.8794 10.5096L51.973 9.79304C51.9937 9.63449 51.9202 9.41038 51.8097 9.29516L51.3104 8.77429C51.1997 8.65908 51.2376 8.54075 51.3943 8.51152L52.102 8.37953C52.2587 8.35031 52.4482 8.21087 52.5234 8.06965L52.8624 7.43223C52.9374 7.29101 53.0612 7.29068 53.1372 7.43123L53.4811 8.06598C53.5573 8.20654 53.7477 8.34453 53.9048 8.37242L54.6135 8.49919C54.7704 8.52719 54.8091 8.64519 54.6995 8.76129L54.2044 9.28572Z" fill="#FFAC33"/>
<path d="M52.087 7.56834C52.2007 7.72533 52.3588 8.11465 52.2778 8.17354C52.1969 8.23254 51.877 7.96132 51.7633 7.80433C51.6498 7.64733 51.6594 7.50789 51.7488 7.44279C51.8381 7.37757 51.9732 7.41145 52.087 7.56834ZM54.2367 7.80433C54.1231 7.96132 53.8033 8.23265 53.7222 8.17343C53.6412 8.11454 53.7994 7.72533 53.9131 7.56845C54.0268 7.41134 54.1618 7.37745 54.2512 7.44279C54.3405 7.50789 54.3501 7.64733 54.2367 7.80433ZM52.8472 11.0249C52.8471 10.8309 52.947 10.4226 53.0473 10.4226C53.147 10.4226 53.2471 10.8309 53.247 11.0248C53.247 11.2189 53.1576 11.3261 53.047 11.3259C52.9365 11.3261 52.8472 11.219 52.8472 11.0249ZM54.6448 9.99581C54.4609 9.93592 54.105 9.71437 54.136 9.6186C54.1668 9.52327 54.5846 9.55405 54.7682 9.61404C54.9521 9.67404 55.0261 9.79237 54.9919 9.89803C54.9577 10.0036 54.8287 10.0558 54.6448 9.99581ZM51.2315 9.61415C51.4153 9.55416 51.833 9.52338 51.8641 9.61904C51.8948 9.71426 51.5388 9.93614 51.3551 9.99592C51.1714 10.0559 51.042 10.0037 51.0081 9.89814C50.9739 9.79259 51.0475 9.67426 51.2315 9.61415Z" fill="#FFD983"/>
<path d="M46.9387 16.4583H51.37C52.058 16.4583 52.6482 16.8765 52.9007 17.4722C53.0021 17.3606 53.147 17.2891 53.3087 17.2891C53.6133 17.2891 53.8626 17.5384 53.8626 17.8431V18.6739H45.2769V18.12C45.2769 17.2025 46.0211 16.4583 46.9387 16.4583Z" fill="#4289C1"/>
<path d="M50.2622 16.1813H48.0465C48.0465 16.1813 47.7696 18.6739 49.1544 18.6739C50.5391 18.6739 50.2622 16.1813 50.2622 16.1813Z" fill="#2A6797"/>
<path d="M49.1543 14.9497C46.8599 14.9497 45 14.5121 45 13.9723C45 13.4325 46.8599 12.9949 49.1543 12.9949C51.4487 12.9949 53.3087 13.4325 53.3087 13.9723C53.3087 14.5121 51.4487 14.9497 49.1543 14.9497Z" fill="#292F33"/>
<path d="M46.8448 13.5677C47.0689 12.5706 48.0177 11.172 49.1544 11.172C50.291 11.172 51.2399 12.5706 51.4639 13.5677C51.6954 13.581 51.8777 13.7117 51.8777 14.0909C51.8777 14.4919 51.6744 14.817 51.4238 14.817C51.4196 14.817 51.416 14.8154 51.4118 14.8151C51.1172 16.0271 50.2182 17.0343 49.1541 17.0343C48.09 17.0343 47.191 16.0271 46.8963 14.8151C46.8922 14.8154 46.8886 14.817 46.8844 14.817C46.6338 14.817 46.4305 14.4919 46.4305 14.0909C46.4311 13.7117 46.613 13.5813 46.8448 13.5677Z" fill="#F7DECE"/>
<path d="M50.2622 14.439C50.4145 14.439 50.5391 14.3144 50.5391 14.162V13.8851C50.5391 13.7327 50.4145 13.6081 50.2622 13.6081C50.1098 13.6081 49.9852 13.7327 49.9852 13.8851V14.162C49.9852 14.3144 50.1098 14.439 50.2622 14.439ZM48.0465 14.439C48.1988 14.439 48.3235 14.3144 48.3235 14.162V13.8851C48.3235 13.7327 48.1988 13.6081 48.0465 13.6081C47.8942 13.6081 47.7696 13.7327 47.7696 13.8851V14.162C47.7696 14.3144 47.8942 14.439 48.0465 14.439Z" fill="#662113"/>
<path d="M48.9467 14.7478H49.3621C49.4765 14.7478 49.5698 14.6545 49.5698 14.5401C49.5698 14.4257 49.4765 14.3324 49.3621 14.3324H48.9467C48.8323 14.3324 48.7389 14.4257 48.7389 14.5401C48.7389 14.6545 48.8323 14.7478 48.9467 14.7478ZM48.5542 15.6365H49.7543C49.8684 15.6365 49.962 15.5432 49.962 15.4288V15.3372C49.962 15.2231 49.8686 15.1294 49.7543 15.1294H48.5542C48.4398 15.1294 48.3465 15.2228 48.3465 15.3372V15.4288C48.3465 15.5429 48.4401 15.6365 48.5542 15.6365Z" fill="#C1694F"/>
<path d="M46.8212 13.6461C46.7678 13.6206 46.7249 13.584 46.6969 13.5356C46.5822 13.337 46.7575 13.0207 47.0888 12.8296C47.42 12.6385 47.7815 12.6446 47.8961 12.8432C48.0108 13.0417 47.8355 13.358 47.5042 13.5491C47.3605 13.6319 47.2123 13.6757 47.0799 13.6846C47.1608 13.8297 47.2156 14.0925 47.2156 14.3961C47.2156 14.6905 47.1644 14.9475 47.0874 15.0951C47.2007 15.0907 47.3513 15.2048 47.445 15.3067C47.6413 15.102 47.9548 14.8777 48.3091 14.8076C48.8774 14.6952 49.1125 14.9145 49.1643 15.066C49.2147 14.9145 49.4493 14.6927 50.0201 14.8057C50.3688 14.8746 50.6776 15.0932 50.8745 15.2951C50.9684 15.1962 51.1127 15.0909 51.2215 15.0951C51.1443 14.9475 51.093 14.6902 51.093 14.3961C51.093 14.0911 51.1484 13.8272 51.2301 13.6829C51.0734 13.7006 50.8773 13.658 50.6892 13.5494C50.358 13.3583 50.1827 13.042 50.2973 12.8434C50.412 12.6449 50.7734 12.6388 51.1047 12.8299C51.4359 13.021 51.6112 13.3373 51.4966 13.5358C51.4827 13.5599 51.4647 13.581 51.4442 13.5993C51.5608 13.6967 51.6469 14.0147 51.6469 14.3961C51.6469 14.855 51.5229 15.2269 51.37 15.2269C51.3644 15.2269 51.3592 15.2231 51.3536 15.2219C51.3639 15.2596 51.37 15.3056 51.37 15.3635C51.37 15.8684 51.1853 15.8684 51.1853 15.8684C51.37 16.3733 51.0005 16.882 51.0005 16.882C51.0005 17.6395 50.4466 17.6395 50.4466 17.6395C50.4469 18.397 49.7082 18.1447 49.7082 18.1447C49.5235 18.397 49.1543 18.397 49.1543 18.397C49.1543 18.397 48.7851 18.397 48.6004 18.1447C48.6004 18.1447 47.8618 18.397 47.8618 17.6398C47.8618 17.6398 47.3079 17.6398 47.3079 16.8823C47.3079 16.8823 46.9387 16.3735 47.1231 15.8686C47.1231 15.8686 46.9384 15.8686 46.9384 15.3637C46.9384 15.3056 46.9445 15.2596 46.9547 15.2219C46.9492 15.2231 46.9439 15.2269 46.9384 15.2269C46.7855 15.2269 46.6614 14.855 46.6614 14.3961C46.6617 14.0637 46.7271 13.779 46.8212 13.6461ZM48.4157 15.8684C48.938 15.5116 49.1543 15.6161 49.1543 15.6161C49.1543 15.6161 49.3706 15.5116 49.893 15.8684C50.1735 16.06 50.4535 15.8152 50.6532 15.5756C50.4461 15.4995 50.1868 15.4034 49.9124 15.3491C49.4053 15.3574 49.2106 15.2868 49.1643 15.1832C49.118 15.284 48.922 15.3488 48.4165 15.351C48.136 15.4064 47.8709 15.5061 47.6615 15.5828C47.8607 15.8199 48.1382 16.0584 48.4157 15.8684Z" fill="#E6E7E8"/>
<path d="M47.0038 12.9013C47.3439 12.1571 48.9347 8.70349 49.1543 8.70349C49.374 8.70349 50.9648 12.1571 51.3049 12.9013C52.6398 13.1351 53.3087 13.5765 53.3087 13.9657C51.6469 13.4118 50.2622 13.2891 49.1543 13.2891C48.0465 13.2891 46.6617 13.4118 45 13.9657C45 13.5765 45.6688 13.1351 47.0038 12.9013Z" fill="#4289C1"/>
<path d="M52.7548 18.6739H53.3087V11.9888L53.5857 10.9191H52.4778L52.7548 11.9888V18.6739Z" fill="#D99E82"/>
<path d="M52.2009 17.1507C52.2009 17.686 52.5728 18.12 53.0317 18.12C53.4907 18.12 53.8626 17.686 53.8626 17.1507C53.8626 16.6153 53.4907 16.4583 53.0317 16.4583C52.5728 16.4583 52.2009 16.6153 52.2009 17.1507Z" fill="#F7DECE"/>
</svg>
